HIERARCHY
ROOT Hips
{
   OFFSET 0.00000 0.00000 0.00000
   CHANNELS 6 Xposition Yposition Zposition Zrotation Xrotation Yrotation
   JOINT Spine
   {
      OFFSET 0.000000 11.890501 0.000000
      CHANNELS 3 Zrotation Xrotation Yrotation
      JOINT Spine1
      {
         OFFSET -0.000000 25.657401 0.127660
         CHANNELS 3 Zrotation Xrotation Yrotation
         JOINT HEad
         {
            OFFSET 0.000000 8.734161 0.011340
            CHANNELS 3 Zrotation Xrotation Yrotation
            End Site
            {
               OFFSET -0.290000 12.774200 2.513950
            }
         }
         JOINT LeftShoulder1
         {
            OFFSET 8.990000 -0.362250 -0.220000
            CHANNELS 3 Zrotation Xrotation Yrotation
            JOINT LeftArm
            {
               OFFSET 10.282700 -0.003380 0.322120
               CHANNELS 3 Zrotation Xrotation Yrotation
               JOINT LeftForeArm
               {
                  OFFSET 32.766900 0.099140 -1.424340
                  CHANNELS 3 Zrotation Xrotation Yrotation
                  JOINT LeftHand
                  {
                     OFFSET 27.564301 0.085360 1.022160
                     CHANNELS 3 Zrotation Xrotation Yrotation
                     End Site
                     {
                        OFFSET 16.744301 -0.600000 1.502910
                     }
                  }
               }
            }
         }
         JOINT RightShoulder
         {
            OFFSET -8.990000 -0.362250 -0.220000
            CHANNELS 3 Zrotation Xrotation Yrotation
            JOINT RightArm
            {
               OFFSET -10.282700 -0.003380 0.322120
               CHANNELS 3 Zrotation Xrotation Yrotation
               JOINT RightForeArm
               {
                  OFFSET -32.897098 0.099140 -1.424340
                  CHANNELS 3 Zrotation Xrotation Yrotation
                  JOINT RightHand
                  {
                     OFFSET -27.492101 0.085360 1.022160
                     CHANNELS 3 Zrotation Xrotation Yrotation
                     End Site
                     {
                        OFFSET -16.631201 -0.600000 1.502910
                     }
                  }
               }
            }
         }
      }
   }
   JOINT LeftUpLeg
   {
      OFFSET 8.945800 -8.667070 0.101650
      CHANNELS 3 Zrotation Xrotation Yrotation
      JOINT LeftLeg
      {
         OFFSET 0.000000 -44.422697 1.372700
         CHANNELS 3 Zrotation Xrotation Yrotation
         JOINT LeftFoot
         {
            OFFSET -0.253550 -42.092399 -1.460590
            CHANNELS 3 Zrotation Xrotation Yrotation
            JOINT LeftToes
            {
               OFFSET -0.040000 -4.415090 8.499099
               CHANNELS 3 Zrotation Xrotation Yrotation
               End Site
               {
                  OFFSET 0.080000 -0.047450 9.779790
               }
            }
         }
      }
   }
   JOINT RightUpLeg
   {
      OFFSET -8.945800 -8.667070 0.101650
      CHANNELS 3 Zrotation Xrotation Yrotation
      JOINT RightLeg
      {
         OFFSET 0.000000 -44.422697 1.372700
         CHANNELS 3 Zrotation Xrotation Yrotation
         JOINT RightFoot
         {
            OFFSET 0.253550 -42.092399 -1.460590
            CHANNELS 3 Zrotation Xrotation Yrotation
            JOINT RightToes
            {
               OFFSET 0.040000 -4.415090 8.499099
               CHANNELS 3 Zrotation Xrotation Yrotation
               End Site
               {
                  OFFSET -0.080000 -0.137450 9.779790
               }
            }
         }
      }
   }
}
MOTION
Frames: 15
Frame Time: 0.016670
48.393554 91.491669 4.850143 43.368843 55.166270 85.113405 -27.422760 34.637320 31.445098 -7.444664 53.292483 3.055217 -26.310445 -3.395002 7.638088 2.765104 -4.706894 -41.406304 98.091652 -84.460999 101.432537 -22.449015 -9.020726 -46.102862 -46.278360 -32.289057 -47.680389 -62.580720 48.203251 89.551382 146.072994 102.918636 146.467888 1.787990 194.489841 80.265316 -0.406796 -8.633907 40.281730 9.874854 6.912635 62.000933 -11.889077 53.140849 175.584520 -25.033874 28.037780 -37.408400 19.238737 -34.643553 -85.566998 -53.449785 17.209512 24.756676 18.743361 25.010421 -1.106349 27.786815 15.007471 3.500905 -93.734108 -24.453636 -28.071654
47.751455 91.883448 4.641817 36.743385 50.120389 87.756401 -31.103944 36.515363 32.822648 -6.775707 53.163672 0.594671 -23.054747 -4.232486 6.164879 6.969760 -2.824518 -37.840604 112.955756 -85.381995 118.568232 -14.668077 -9.392693 -48.998148 -44.716238 -34.389972 -48.380846 -59.916803 47.409221 87.368092 141.321914 102.871924 148.510961 2.595262 194.117118 79.329656 -1.812849 -10.785098 41.353394 10.771229 5.141103 61.988249 -14.892621 49.034249 165.218383 -24.124320 26.205563 -31.435157 10.845039 -43.314010 -78.270300 -47.617856 12.807760 20.790444 18.966863 24.378412 -1.765874 29.954365 14.652221 2.569173 -95.447775 -25.416193 -28.652732
47.054347 92.229165 4.694567 35.652655 47.359193 91.695419 -34.004022 37.940328 34.755722 -5.088100 51.689065 -1.521852 -20.757042 -3.954013 5.192417 2.039221 5.825434 -34.162041 124.323199 -90.585199 119.604863 -7.725439 -11.196135 -48.762612 -45.664418 -36.083941 -58.428976 -57.583604 47.013647 84.945874 137.000549 102.227837 151.741791 2.913092 193.177789 78.157336 -4.435925 -13.339599 41.745604 9.831668 5.813693 77.498878 4.633159 48.168540 127.835187 -18.800360 19.204513 -22.142742 11.185189 -40.403315 -65.455356 -43.402707 14.141056 17.754933 18.431207 24.237307 -2.055279 31.593781 15.145892 1.159953 -96.762586 -26.128156 -29.178097
46.480860 92.640074 5.137526 37.248891 46.354499 94.108416 -34.502533 40.635842 36.722526 -3.301893 49.913817 -4.001449 -18.787849 -2.021140 4.587853 1.891931 15.042141 -31.991629 129.871990 -92.093107 117.216906 -2.235646 -10.510933 -48.344789 -45.368903 -38.987089 -64.630269 -57.744065 46.709570 82.911352 131.924708 102.948416 158.062913 3.762335 192.005879 77.906394 -7.659217 -16.415298 41.990340 7.118506 0.805658 103.474456 46.079041 33.333888 54.905746 -13.104700 15.637593 -14.139815 10.091875 -38.662108 -55.799394 -41.155178 17.663050 15.086561 17.997163 23.961009 -2.255016 33.048379 15.959072 -0.490832 -97.764835 -26.262754 -29.152743
45.961632 93.003405 5.839403 36.317526 45.536011 93.894453 -35.320483 40.979048 39.671976 -2.190421 48.323626 -6.311583 -16.728450 0.464412 4.323661 1.715898 21.383094 -29.148164 127.445319 -92.801200 110.710085 3.929979 -9.880154 -48.567645 -43.957028 -42.627296 -69.213237 -57.005858 47.000960 81.105457 127.148548 103.228515 163.587429 4.936691 190.220331 78.023478 -11.273011 -19.742373 41.934838 5.744370 0.804854 114.359155 46.746194 25.185566 46.806976 -8.675277 11.676920 -6.049775 8.415615 -39.056828 -47.580785 -40.210078 16.953329 12.862820 16.951449 23.391105 -1.832551 34.932442 16.689174 -1.083144 -98.515138 -26.334744 -28.862716
45.474109 93.263377 6.572763 35.256996 45.175537 92.506279 -36.035535 40.757580 41.860061 -0.988838 46.346788 -9.250693 -13.811432 4.319538 4.062495 1.135430 26.524461 -29.097060 125.039658 -91.720356 105.458722 8.923320 -8.542069 -49.669136 -41.778857 -45.343051 -76.775800 -55.238441 45.293126 81.137839 121.773202 104.808235 168.288375 5.440939 186.649153 77.421349 -16.087068 -24.213932 40.996390 3.864636 0.163812 117.300617 47.348248 23.474860 43.633356 -7.299909 11.632873 -3.218423 10.037003 -38.690710 -43.275597 -39.728335 15.061646 10.613744 16.182019 23.508676 -1.468593 36.430112 17.488923 -2.007932 -99.372224 -25.542222 -27.534251
45.038313 92.995080 7.258450 33.644743 43.557865 93.727114 -39.279229 41.621329 43.645394 -0.329496 44.493024 -12.776752 -12.544080 7.403051 4.322542 1.769474 29.604471 -30.574382 130.534081 -89.747914 108.872013 14.424250 -7.600979 -50.505827 -40.474328 -51.181521 -79.115768 -53.809552 43.581480 79.015706 117.448846 103.122251 172.430243 6.480335 185.010222 75.193894 -19.217598 -27.546016 38.173968 3.178589 -1.144542 115.010099 46.283045 22.992913 44.732374 -7.394810 13.502681 -3.686056 11.849618 -38.038297 -45.034361 -38.529695 14.298067 8.165229 16.383146 22.526336 -0.714212 37.033286 18.590325 -2.701357 -101.805288 -22.002969 -31.090785
44.539937 92.464026 8.028685 34.238844 43.397154 96.139687 -40.343609 41.057770 47.325472 0.554274 46.686341 -14.731258 -14.334697 10.839579 5.461035 4.837455 32.945626 -30.163608 141.232193 -86.911630 117.159328 19.341021 -6.734915 -50.814743 -38.435855 -55.268084 -81.803659 -51.256830 43.410114 75.171436 113.826448 100.175420 176.846097 11.115399 183.848612 75.762958 -19.288430 -28.389219 41.525573 0.341161 0.233446 109.051859 44.811536 23.830006 40.738148 -10.553223 19.800177 -8.888386 16.244094 -37.263743 -52.257009 -37.307818 16.693616 5.739250 16.057835 21.347968 -0.409679 36.434917 19.687351 -4.113337 -103.877335 -19.884494 -32.950752
44.019455 91.815289 8.942988 34.227584 43.395682 98.137394 -40.516423 40.844572 49.029786 1.395962 49.058599 -16.942317 -15.697020 13.981440 6.751478 9.870541 38.102268 -32.086251 153.962928 -82.753384 127.162741 21.760931 -4.763928 -49.864093 -36.324206 -59.555384 -82.325855 -48.384138 41.505478 72.257411 111.600797 97.702011 180.990847 12.687915 179.991016 71.216736 -19.101404 -28.421863 43.319180 -2.196987 2.920727 102.197791 43.303570 24.633957 35.294091 -15.654182 26.826287 -15.015566 20.308075 -37.539522 -60.094081 -35.941384 17.398838 3.730027 14.423531 20.760975 -0.251494 35.988851 19.813482 -4.798791 -105.819424 -19.004168 -34.140219
43.352184 91.358536 9.875390 33.520345 40.584485 100.582677 -37.991647 40.741231 49.823191 3.258222 50.592676 -16.838044 -16.970469 15.912087 8.220465 16.681137 41.224758 -32.312307 165.866868 -79.948409 140.238824 24.139582 -5.122373 -47.929179 -34.760807 -62.019108 -82.512052 -45.002228 40.266813 68.949885 110.688488 94.629662 184.423973 13.733704 175.499976 66.990523 -18.703507 -27.191500 45.457617 -1.418727 5.487155 95.054493 40.025957 25.669656 31.103213 -22.105670 33.718909 -19.902973 23.354971 -40.762890 -68.684915 -32.178080 18.613609 0.701870 14.141399 19.260462 -0.392999 36.026263 19.305272 -4.948528 -107.665802 -20.172790 -33.328188
42.730064 91.067408 10.775573 33.437075 35.363762 102.573199 -35.441083 42.039534 49.778914 4.491104 52.623059 -16.783392 -18.610174 16.520887 9.944504 25.536672 48.010807 -33.687125 177.517436 -76.043126 153.605845 24.931898 -3.059679 -44.008138 -33.652612 -66.564394 -78.521590 -42.438356 36.912384 65.143271 109.755341 91.598280 187.328115 15.174879 171.027213 64.155414 -18.982540 -26.396379 42.786846 1.611146 6.685942 88.427686 37.144194 25.212238 30.758907 -26.332964 38.496131 -21.551327 24.443702 -43.936414 -73.782251 -26.192326 19.158964 -2.524494 14.852292 17.894216 -0.955080 36.162778 18.935197 -5.346141 -109.229963 -20.223333 -33.467217
42.135519 90.708750 11.374550 33.063648 30.697906 105.373768 -32.338227 44.796547 50.609905 5.311770 49.595735 -16.123094 -18.989398 14.852439 11.594856 34.922880 50.470822 -37.032493 189.662824 -73.898890 163.816637 26.676525 -1.951529 -39.956750 -33.170172 -68.527144 -75.930557 -42.823275 34.299854 62.731743 112.878841 88.194271 189.611939 12.000478 168.060534 56.564027 -18.262883 -23.355598 37.156069 3.460895 7.325650 81.336270 34.987685 23.252501 32.598529 -29.701662 42.073026 -21.383065 27.109436 -36.212058 -66.027364 -20.485192 19.616104 -5.279461 15.776257 16.042588 -1.810013 36.273550 18.412267 -5.696295 -110.462197 -20.753009 -33.440654
41.623916 90.196274 11.784494 34.171310 27.601189 108.354087 -29.824253 48.194187 49.873051 6.524139 46.780696 -16.590845 -19.679879 10.615100 13.526054 42.573863 53.149066 -39.733109 199.118319 -73.780748 173.776022 28.647391 0.524171 -35.359148 -33.568976 -70.750624 -71.334912 -44.325076 33.687234 62.943786 116.519735 85.985033 189.197073 11.757175 166.287663 54.239133 -18.727861 -22.657826 34.450610 4.298826 8.855558 73.610711 33.430303 20.713940 35.404111 -32.742732 45.237022 -21.130169 23.217621 -45.279711 -76.984565 -16.440009 21.248604 -7.207074 17.053524 14.412145 -2.524418 36.663680 17.609505 -5.344034 -111.467499 -21.308182 -33.863965
41.144976 89.615420 12.010498 38.377057 28.577356 111.465067 -23.275867 43.844934 46.392670 9.352081 41.978906 -18.214260 -20.923002 0.833312 16.120976 50.434895 55.803902 -44.992003 208.157405 -73.919832 181.350456 29.952654 3.731014 -35.286062 -34.111385 -70.223162 -71.025778 -46.229435 37.008970 68.162406 123.263522 84.344415 185.208489 10.749208 165.770044 52.231526 -19.301269 -22.258019 33.394246 3.067805 14.274350 65.985051 32.830370 18.278081 39.493790 -33.984644 48.286589 -19.551393 27.252308 -34.531186 -65.396848 -15.828050 27.101333 -8.140458 18.590238 13.214893 -3.585551 36.786344 16.358342 -5.278553 -112.186233 -21.518552 -34.049992
40.920729 89.123601 12.072521 39.963051 27.694815 113.932999 -17.855895 44.055632 43.917095 10.098291 39.870669 -19.717544 -22.394023 -3.801813 18.800710 55.958534 57.870718 -47.761215 215.825686 -73.908657 188.884606 31.828408 5.907081 -34.895314 -34.591964 -70.424926 -69.829703 -47.074439 39.257117 70.675034 128.177475 84.091438 182.540644 10.386716 163.876469 51.040081 -20.444751 -22.830220 31.996397 3.317554 17.481615 58.038706 31.451092 16.682396 43.772224 -35.438983 51.005496 -19.161908 26.566378 -34.716120 -66.744854 -14.506178 29.744364 -9.026073 21.074052 11.780503 -4.649790 36.662205 15.328432 -5.280607 -112.698244 -21.485026 -33.913809
